<svg width="14" height="20" viewBox="0 0 14 20" fill="none" xmlns="http://www.w3.org/2000/svg">
<path d="M10.125 15.0034C10.5 13.7573 11.2773 12.6948 12.0469 11.6362C12.25 11.3589 12.4531 11.0815 12.6484 10.8003C13.4219 9.68701 13.875 8.33936 13.875 6.88232C13.875 3.08154 10.7969 0.00341797 7 0.00341797C3.20312 0.00341797 0.125 3.08154 0.125 6.87842C0.125 8.33545 0.578125 9.68701 1.35156 10.7964C1.54688 11.0776 1.75 11.355 1.95312 11.6323C2.72656 12.6909 3.50391 13.7573 3.875 14.9995H10.125V15.0034ZM7 20.0034C8.72656 20.0034 10.125 18.605 10.125 16.8784V16.2534H3.875V16.8784C3.875 18.605 5.27344 20.0034 7 20.0034ZM3.875 6.87842C3.875 7.22217 3.59375 7.50342 3.25 7.50342C2.90625 7.50342 2.625 7.22217 2.625 6.87842C2.625 4.46045 4.58203 2.50342 7 2.50342C7.34375 2.50342 7.625 2.78467 7.625 3.12842C7.625 3.47217 7.34375 3.75342 7 3.75342C5.27344 3.75342 3.875 5.15186 3.875 6.87842Z" fill="#FF8F00"/>
</svg>
