<svg width="40" height="41" viewBox="0 0 40 41" fill="none" xmlns="http://www.w3.org/2000/svg">
<path d="M25.7143 19.0748C28.0804 19.0748 30 17.1552 30 14.7891C30 12.4231 28.0804 10.5034 25.7143 10.5034C23.3482 10.5034 21.4286 12.4231 21.4286 14.7891C21.4286 14.9677 21.4375 15.1463 21.4598 15.3204L17.2589 17.4186C16.4911 16.6731 15.442 16.2177 14.2857 16.2177C11.9196 16.2177 10 18.1373 10 20.5034C10 22.8695 11.9196 24.7891 14.2857 24.7891C15.442 24.7891 16.4911 24.3338 17.2589 23.5882L21.4598 25.6865C21.4375 25.8606 21.4286 26.0347 21.4286 26.2177C21.4286 28.5838 23.3482 30.5034 25.7143 30.5034C28.0804 30.5034 30 28.5838 30 26.2177C30 23.8516 28.0804 21.932 25.7143 21.932C24.558 21.932 23.5089 22.3873 22.7411 23.1329L18.5402 21.0347C18.5625 20.8606 18.5714 20.6865 18.5714 20.5034C18.5714 20.3204 18.5625 20.1463 18.5402 19.9722L22.7411 17.874C23.5089 18.6195 24.558 19.0748 25.7143 19.0748Z" fill="#FF8F00"/>
</svg>
