<svg width="64" height="65" viewBox="0 0 64 65" fill="none" xmlns="http://www.w3.org/2000/svg">
<path d="M0.627796 0.692532C-0.00997772 1.04268 0.00252767 0.867607 0.00252767 9.58385C-0.0099777 18.7128 -0.00997772 18.7253 0.865398 20.501C1.47816 21.7266 2.66617 22.9896 3.84168 23.6524L4.61701 24.0901L4.64202 42.9107L4.67954 61.7312L4.94215 62.3065C5.32982 63.1318 5.91757 63.7321 6.71791 64.1323C7.30566 64.4199 7.59329 64.4824 8.36862 64.4824C9.93179 64.4824 11.1448 63.7071 11.7951 62.3065L12.0577 61.7312L12.0952 42.9107L12.1327 24.0901L12.9081 23.6524C14.0711 22.9896 15.2591 21.7266 15.8718 20.501C16.7472 18.7253 16.7472 18.7003 16.7472 9.60886C16.7472 0.817589 16.7597 0.980156 16.0594 0.667522C15.6467 0.479942 15.3466 0.479942 14.9339 0.667522C14.2461 0.980156 14.2461 0.917629 14.2461 8.39584V15.2738H13.1207H11.9952V8.39584C11.9952 3.34367 11.9577 1.44286 11.8451 1.20525C11.6825 0.842598 11.1573 0.51746 10.7446 0.51746C10.332 0.51746 9.80674 0.842598 9.64417 1.20525C9.53162 1.44286 9.4941 3.34367 9.4941 8.39584V15.2738H8.36862H7.24314V8.39584C7.24314 3.34367 7.20562 1.44286 7.09307 1.20525C6.83046 0.6175 6.06763 0.367393 5.42986 0.667522C4.74206 0.980156 4.74206 0.917629 4.74206 8.39584V15.2738H3.61658H2.4911V8.39584C2.4911 3.34367 2.45358 1.44286 2.34103 1.20525C2.06591 0.604996 1.24056 0.354889 0.627796 0.692532ZM14.0836 18.2001C13.871 19.5381 12.4329 21.2263 11.0448 21.7641C10.6446 21.9267 10.1569 22.2143 9.96931 22.4144L9.61916 22.777V41.9227C9.61916 62.7317 9.65667 61.5687 8.93136 61.8938C8.51869 62.0814 8.21856 62.0814 7.80588 61.8938C7.08057 61.5687 7.11808 62.7317 7.11808 41.9227V22.802L6.79294 22.4144C6.61787 22.2018 6.40528 22.0267 6.31774 22.0267C5.93007 22.0267 4.61701 21.2263 4.02926 20.6386C3.36647 19.9758 2.76621 18.9129 2.65367 18.2001L2.57863 17.7749H8.36862H14.1586L14.0836 18.2001Z" fill="#FF8F00"/>
<path d="M61.6916 1.00517C60.5536 1.76799 58.9404 3.21862 57.8649 4.44415C55.2263 7.42042 53.413 11.147 52.6127 15.1738C52.3375 16.5493 52.3375 16.862 52.2875 26.291C52.25 37.0081 52.2375 36.8706 53.0253 38.4337C53.313 38.9965 53.8507 39.6593 54.9637 40.7847L56.5143 42.3604L56.5394 52.0521C56.5769 61.5937 56.5769 61.7437 56.8395 62.3065C57.2271 63.1318 57.8149 63.7321 58.6152 64.1323C59.203 64.4199 59.4906 64.4824 60.266 64.4824C61.8291 64.4824 63.0421 63.7071 63.6924 62.3065L63.955 61.7312L63.9926 31.6558C64.0176 9.15867 63.98 1.49288 63.88 1.23026C63.7174 0.842598 63.1922 0.51746 62.7295 0.51746C62.5544 0.51746 62.0917 0.742554 61.6916 1.00517ZM61.3789 61.3311C61.2164 61.7062 60.6911 62.0439 60.266 62.0439C59.9033 62.0439 59.3155 61.7187 59.1905 61.4561C59.128 61.3311 59.0529 56.7416 59.0154 51.2642L58.9529 41.2975L57.1896 39.5092C56.0391 38.3337 55.3263 37.5083 55.1262 37.0957L54.8261 36.4704L54.7886 27.2915C54.7636 19.6882 54.7886 17.8499 54.9512 16.6619C55.5014 12.3725 57.4147 8.43336 60.391 5.40706L61.454 4.3316L61.4915 32.6563C61.5165 53.7903 61.479 61.0685 61.3789 61.3311Z" fill="#FF8F00"/>
<path d="M29.2525 8.78362C26.9516 9.04624 24.1128 9.84658 22.062 10.822C20.8114 11.4098 20.4988 11.7224 20.4988 12.3727C20.4988 12.9479 21.074 13.5232 21.6368 13.5232C21.8619 13.5232 22.7748 13.223 23.6751 12.8479C27.3017 11.3347 31.0033 10.8345 34.7924 11.3347C39.3319 11.935 43.221 13.7733 46.6225 16.9621C47.798 18.0501 47.9356 18.1501 48.3983 18.1501C49.1236 18.1501 49.6363 17.6249 49.6363 16.8871C49.6363 16.3994 49.5738 16.2994 48.6984 15.449C44.8092 11.6724 39.8946 9.37138 34.4798 8.78362C33.0792 8.62105 30.6281 8.63356 29.2525 8.78362Z" fill="#FF8F00"/>
<path d="M30.1903 14.8484C27.4517 15.1486 24.4129 16.274 22.0118 17.8747C20.6112 18.8001 18.2727 21.1386 17.3473 22.5267C15.9967 24.5651 15.1089 26.6535 14.5961 29.017C14.2085 30.7302 14.221 34.3068 14.5961 36.045C16.1468 43.1356 21.4366 48.4128 28.5396 49.9385C30.3654 50.3262 33.6418 50.3262 35.4551 49.9385C37.2809 49.5508 38.5064 49.1131 40.1446 48.2628C44.9092 45.8242 48.2481 41.3973 49.4111 35.995C49.7737 34.2943 49.7988 31.0179 49.4611 29.3422C48.3481 23.7147 44.8591 19.1128 39.8195 16.6117C37.4434 15.4362 35.2675 14.911 32.5038 14.8359C31.5034 14.8109 30.4655 14.8234 30.1903 14.8484ZM34.2671 17.4621C39.1567 18.1999 43.4085 21.2887 45.672 25.7781C46.2972 27.0287 46.86 28.8044 47.0726 30.2676C48.3231 38.5586 42.5707 46.3495 34.2546 47.6125C27.6642 48.6004 21.1364 45.1239 18.2477 39.0963C14.8337 31.9558 17.4474 23.4771 24.3128 19.3754C27.2141 17.6371 30.8406 16.9368 34.2671 17.4621Z" fill="#FF8F00"/>
<path d="M31.4285 21.1513C31.0158 21.3139 30.7532 21.7766 30.7532 22.3143C30.7532 23.5649 32.5039 23.9901 33.0792 22.8896C33.6419 21.7891 32.579 20.6761 31.4285 21.1513Z" fill="#FF8F00"/>
<path d="M26.8266 22.2891C23.5001 23.9648 21.1491 27.2663 20.6364 30.9678C20.4113 32.5935 20.4363 32.8687 20.924 33.3564C21.3992 33.8316 21.7994 33.8941 22.3621 33.594C22.7998 33.3689 22.9374 33.0062 23.1 31.5806C23.25 30.2675 23.6752 28.942 24.2755 27.929C24.9007 26.8536 26.5139 25.3154 27.6894 24.6651C28.2397 24.3525 28.7899 24.0274 28.9024 23.9273C29.2276 23.6522 29.3151 23.0019 29.0775 22.5517C28.6773 21.7889 27.9645 21.7014 26.8266 22.2891Z" fill="#FF8F00"/>
<path d="M49.3612 45.3868C49.2487 45.4369 48.4859 46.1747 47.6855 47.0251C44.4466 50.414 41.1952 52.3148 36.8434 53.3528C31.6411 54.5908 25.8887 53.7279 21.3117 51.0393C20.6114 50.6266 20.0361 50.3765 19.786 50.3765C18.9232 50.3515 18.2979 51.2519 18.623 52.0522C18.8231 52.5149 19.5109 52.9776 21.3117 53.878C31.391 58.9302 43.6338 56.2415 50.6743 47.4377C50.8869 47.1626 51.0119 46.85 51.0119 46.5874C51.0119 45.812 50.024 45.0992 49.3612 45.3868Z" fill="#FF8F00"/>
<path d="M15.3842 47.4626C15.2216 47.5501 15.009 47.7627 14.9215 47.9253C14.2212 49.1883 15.8719 50.4389 16.8848 49.4259C17.8978 48.413 16.6472 46.7623 15.3842 47.4626Z" fill="#FF8F00"/>
</svg>
